<?xml version="1.0" encoding="UTF-8"?>
<svg viewBox="0 0 37 35" version="1.1" xmlns="http://www.w3.org/2000/svg" xmlns:xlink="http://www.w3.org/1999/xlink">
    <!-- Generator: Sketch 52.2 (67145) - http://www.bohemiancoding.com/sketch -->
    <title>more</title>
    <desc>Created with Sketch.</desc>
    <g id="Page-1" stroke="none" stroke-width="1" fill="none" fill-rule="evenodd">
        <g id="优秀学员故事专享" transform="translate(-357.000000, -1255.000000)" fill="#FFFFFF">
            <g id="分组-3" transform="translate(357.000000, 1255.000000)">
                <path d="M18.4996028,35 C17.7489969,34.9999853 17.029925,34.7095835 16.5042007,34.194144 L0.799686743,18.7914473 C-0.281091383,17.7313148 -0.2643207,16.0281708 0.837576107,14.9883566 C1.94009405,13.947646 3.7094024,13.9649762 4.79049109,15.0248098 L18.4999134,28.4706837 L32.2093357,15.0248098 C33.2904402,13.9645491 35.0602205,13.9482285 36.1622506,14.9883567 C37.2642808,16.0284848 37.2812445,17.7311865 36.20014,18.7914473 L20.495005,34.194144 C19.9693208,34.7096404 19.2502229,35.0000527 18.4996028,35 Z" id="路径"></path>
                <path d="M18.4996028,20.78125 C17.7489969,20.7812353 17.029925,20.4908335 16.5042007,19.975394 L0.799686743,4.57269731 C-0.281091383,3.51256485 -0.2643207,1.80942083 0.837576107,0.769606568 C1.94009405,-0.271104048 3.7094024,-0.253773823 4.79049109,0.806059841 L18.4999134,14.2519337 L32.2093357,0.806059841 C33.2904402,-0.25420089 35.0602205,-0.270521538 36.1622506,0.769606653 C37.2642808,1.80973484 37.2812445,3.51243651 36.20014,4.57269731 L20.495005,19.975394 C19.9693208,20.4908904 19.2502229,20.7813027 18.4996028,20.78125 Z" id="路径-copy" opacity="0.5"></path>
            </g>
        </g>
    </g>
</svg>